<?xml version="1.0" encoding="UTF-8" standalone="no"?>
<svg
   xmlns:dc="http://purl.org/dc/elements/1.1/"
   xmlns:cc="http://creativecommons.org/ns#"
   xmlns:rdf="http://www.w3.org/1999/02/22-rdf-syntax-ns#"
   xmlns:svg="http://www.w3.org/2000/svg"
   xmlns="http://www.w3.org/2000/svg"
   xmlns:sodipodi="http://sodipodi.sourceforge.net/DTD/sodipodi-0.dtd"
   xmlns:inkscape="http://www.inkscape.org/namespaces/inkscape"
   version="1.1"
   id="Icons"
   x="0px"
   y="0px"
   viewBox="0 0 192 192"
   xml:space="preserve"
   sodipodi:docname="faviconx192.svg"
   width="192"
   height="192"
   inkscape:version="0.92.4 (5da689c313, 2019-01-14)"><metadata
   id="metadata21"><rdf:RDF><cc:Work
       rdf:about=""><dc:format>image/svg+xml</dc:format><dc:type
         rdf:resource="http://purl.org/dc/dcmitype/StillImage" /><dc:title></dc:title></cc:Work></rdf:RDF></metadata><defs
   id="defs19"><clipPath
     clipPathUnits="userSpaceOnUse"
     id="clipPath5038-9-7-3"><rect
       style="opacity:0.64099995;fill:#fce698;fill-opacity:1;stroke:none;stroke-width:0.43982089;stroke-linecap:round;stroke-linejoin:miter;stroke-miterlimit:4;stroke-dasharray:none;stroke-opacity:1"
       id="rect5040-7-0-4"
       width="12.890625"
       height="28.675617"
       x="447.48434"
       y="565.26971"
       ry="0.25655636" /></clipPath><clipPath
     clipPathUnits="userSpaceOnUse"
     id="clipPath115"><rect
       style="opacity:0.64099995;fill:#fce698;fill-opacity:1;stroke:none;stroke-width:0.43982089;stroke-linecap:round;stroke-linejoin:miter;stroke-miterlimit:4;stroke-dasharray:none;stroke-opacity:1"
       id="rect113"
       width="12.890625"
       height="28.675617"
       x="447.48434"
       y="565.26971"
       ry="0.25655636" /></clipPath></defs><sodipodi:namedview
   pagecolor="#ffffff"
   bordercolor="#666666"
   borderopacity="1"
   objecttolerance="10"
   gridtolerance="10"
   guidetolerance="10"
   inkscape:pageopacity="0"
   inkscape:pageshadow="2"
   inkscape:window-width="2256"
   inkscape:window-height="1410"
   id="namedview17"
   showgrid="false"
   fit-margin-top="0"
   fit-margin-left="0"
   fit-margin-right="0"
   fit-margin-bottom="0"
   inkscape:zoom="7.9720089"
   inkscape:cx="23.381504"
   inkscape:cy="29.165829"
   inkscape:window-x="-11"
   inkscape:window-y="-11"
   inkscape:window-maximized="1"
   inkscape:current-layer="g107" />
<style
   type="text/css"
   id="style2">
	.st0{opacity:0.15;fill:#45413C;}
	.st1{fill:#FFE500;}
	.st2{fill:#EBCB00;}
	.st3{fill:none;stroke:#45413C;stroke-linecap:round;stroke-linejoin:round;stroke-miterlimit:10;}
	.st4{fill:#FFAA54;}
	.st5{fill:#FF8A14;}
	.st6{fill:#FFB0CA;stroke:#45413C;stroke-linecap:round;stroke-linejoin:round;stroke-miterlimit:10;}
	.st7{fill:#FF87AF;stroke:#45413C;stroke-linecap:round;stroke-linejoin:round;stroke-miterlimit:10;}
	.st8{fill:#FFCC99;}
	.st9{fill:#FFFFFF;}
	.st10{fill:#F0F0F0;}
	.st11{fill:#BF8256;}
	.st12{fill:#915E3A;}
	.st13{fill:#DEA47A;}
	.st14{fill:#F0D5A8;}
	.st15{fill:#DEBB7E;}
	.st16{fill:#F7E5C6;}
	.st17{fill:#FF8A14;stroke:#45413C;stroke-linecap:round;stroke-linejoin:round;stroke-miterlimit:10;}
	.st18{fill:#FFF5E3;}
	.st19{fill:#FFF48C;}
	.st20{fill:#FFFACF;}
	.st21{fill:#FFFCE5;}
	.st22{fill:#FF87AF;}
	.st23{fill:#FFB0CA;}
	.st24{fill:#FFE500;stroke:#45413C;stroke-linecap:round;stroke-linejoin:round;stroke-miterlimit:10;}
	.st25{fill:#9CEB60;stroke:#45413C;stroke-linecap:round;stroke-linejoin:round;stroke-miterlimit:10;}
	.st26{fill:#FFFACF;stroke:#45413C;stroke-linecap:round;stroke-linejoin:round;stroke-miterlimit:10;}
	.st27{fill:#00F5BC;stroke:#45413C;stroke-linecap:round;stroke-linejoin:round;stroke-miterlimit:10;}
	.st28{fill:#BF8256;stroke:#45413C;stroke-linecap:round;stroke-linejoin:round;stroke-miterlimit:10;}
	.st29{fill:#FFE3CF;stroke:#45413C;stroke-linecap:round;stroke-linejoin:round;stroke-miterlimit:10;}
	.st30{fill:#FF6242;}
	.st31{fill:#FF866E;}
	.st32{fill:none;stroke:#E04122;stroke-linecap:round;stroke-linejoin:round;stroke-miterlimit:10;}
	.st33{fill:#FFFEF2;stroke:#45413C;stroke-linecap:round;stroke-linejoin:round;stroke-miterlimit:10;}
	.st34{fill:#FF6242;stroke:#45413C;stroke-linecap:round;stroke-linejoin:round;stroke-miterlimit:10;}
	.st35{fill:#FFA694;}
	.st36{fill:#FFFFFF;stroke:#45413C;stroke-linecap:round;stroke-linejoin:round;stroke-miterlimit:10;}
	.st37{fill:#FFFEF2;}
	.st38{fill:#FF6196;}
	.st39{fill:#B89558;}
	.st40{fill:none;stroke:#915E3A;stroke-linecap:round;stroke-linejoin:round;stroke-miterlimit:10;}
	.st41{fill:#DEBB7E;stroke:#45413C;stroke-linecap:round;stroke-linejoin:round;stroke-miterlimit:10;}
	.st42{fill:#6DD627;stroke:#45413C;stroke-linecap:round;stroke-linejoin:round;stroke-miterlimit:10;}
	.st43{fill:#E5F8FF;}
	.st44{fill:#E8F4FA;}
	.st45{fill:#E8F4FA;stroke:#45413C;stroke-linecap:round;stroke-linejoin:round;stroke-miterlimit:10;}
	.st46{fill:#FFCCDD;}
	.st47{fill:#E5F8FF;stroke:#45413C;stroke-linecap:round;stroke-linejoin:round;stroke-miterlimit:10;}
	.st48{fill:#00B8F0;stroke:#45413C;stroke-linecap:round;stroke-linejoin:round;stroke-miterlimit:10;}
	.st49{fill:#00B8F0;}
	.st50{fill:#4ACFFF;}
	.st51{fill:#E04122;}
	.st52{fill:#E04122;stroke:#45413C;stroke-linecap:round;stroke-linejoin:round;stroke-miterlimit:10;}
	.st53{fill:#87898C;}
	.st54{fill:#BDBEC0;}
	.st55{fill:#656769;}
	.st56{fill:#525252;}
	.st57{fill:#FFF48C;stroke:#45413C;stroke-linecap:round;stroke-linejoin:round;stroke-miterlimit:10;}
	.st58{fill:#6DD627;}
	.st59{fill:#EB6D00;}
	.st60{fill:#46B000;}
	.st61{fill:#80DDFF;}
	.st62{fill:#DAEDF7;}
	.st63{fill:#BF8DF2;stroke:#45413C;stroke-linecap:round;stroke-linejoin:round;stroke-miterlimit:10;}
	.st64{fill:#9F5AE5;stroke:#45413C;stroke-linecap:round;stroke-linejoin:round;stroke-miterlimit:10;}
	.st65{fill:#C8FFA1;}
	.st66{fill:#E4FFD1;}
	.st67{fill:#9CEB60;}
	.st68{fill:#E5FEFF;}
	.st69{fill:#B8ECFF;}
	.st70{fill:#E0E0E0;stroke:#45413C;stroke-linecap:round;stroke-linejoin:round;stroke-miterlimit:10;}
	.st71{fill:#E0E0E0;}
	.st72{fill:none;stroke:#4F4B45;stroke-linejoin:round;stroke-miterlimit:10;}
	.st73{fill:none;stroke:#4F4B45;stroke-linecap:round;stroke-linejoin:round;stroke-miterlimit:10;}
	.st74{fill:#E0366F;stroke:#45413C;stroke-linecap:round;stroke-linejoin:round;stroke-miterlimit:10;}
	.st75{fill:none;stroke:#45413C;stroke-miterlimit:10;}
	.st76{fill:#FF866E;stroke:#45413C;stroke-linecap:round;stroke-linejoin:round;stroke-miterlimit:10;}
	.st77{fill:#45413C;stroke:#45413C;stroke-linecap:round;stroke-linejoin:round;stroke-miterlimit:10;}
	.st78{fill:#9F5AE5;}
	.st79{fill:#803EC2;}
	.st80{fill:#803EC2;stroke:#45413C;stroke-linecap:round;stroke-linejoin:round;stroke-miterlimit:10;}
	.st81{fill:#BF8DF2;}
	.st82{fill:#FFAA54;stroke:#45413C;stroke-linecap:round;stroke-linejoin:round;stroke-miterlimit:10;}
	.st83{fill:none;stroke:#45413C;stroke-linejoin:round;stroke-miterlimit:10;}
	.st84{fill:#FFCCDD;stroke:#45413C;stroke-linecap:round;stroke-linejoin:round;stroke-miterlimit:10;}
	.st85{fill:#FF6196;stroke:#45413C;stroke-linecap:round;stroke-linejoin:round;stroke-miterlimit:10;}
	.st86{fill:#FFE5EE;}
	.st87{fill:#F7E5C6;stroke:#45413C;stroke-linecap:round;stroke-linejoin:round;stroke-miterlimit:10;}
	.st88{fill:#E5FFF9;}
	.st89{fill:none;stroke:#45413C;stroke-width:1.0064;stroke-linecap:round;stroke-linejoin:round;stroke-miterlimit:10;}
	.st90{fill:#4AEFF7;}
	.st91{fill:#A6FBFF;}
	.st92{fill:#E5FEFF;stroke:#45413C;stroke-linecap:round;stroke-linejoin:round;stroke-miterlimit:10;}
	.st93{fill:#46B000;stroke:#45413C;stroke-linecap:round;stroke-linejoin:round;stroke-miterlimit:10;}
	.st94{fill:#FFFFFF;stroke:#45413C;stroke-linejoin:round;stroke-miterlimit:10;}
	.st95{fill:#FFFFFF;stroke:#45413C;stroke-miterlimit:10;}
	.st96{fill:#009FD9;}
	.st97{fill:#00DFEB;}
	.st98{fill:#C0DCEB;stroke:#45413C;stroke-linecap:round;stroke-linejoin:round;stroke-miterlimit:10;}
	.st99{fill:#00DFEB;stroke:#45413C;stroke-linecap:round;stroke-linejoin:round;stroke-miterlimit:10;}
	.st100{fill:#FFE5EE;stroke:#45413C;stroke-linecap:round;stroke-linejoin:round;stroke-miterlimit:10;}
	.st101{fill:#8CA4B8;}
	.st102{fill:#ADC4D9;}
	.st103{fill:#656769;stroke:#45413C;stroke-linecap:round;stroke-linejoin:round;stroke-miterlimit:10;}
	.st104{fill:#F0F0F0;stroke:#45413C;stroke-linecap:round;stroke-linejoin:round;stroke-miterlimit:10;}
	.st105{fill:#C0DCEB;}
	.st106{fill:#45413C;}
	.st107{fill:#FFCABF;}
	.st108{fill:#87898C;stroke:#45413C;stroke-linecap:round;stroke-linejoin:round;stroke-miterlimit:10;}
	.st109{fill:#EBCB00;stroke:#45413C;stroke-linecap:round;stroke-linejoin:round;stroke-miterlimit:10;}
</style>

<g
   id="g107"
   transform="translate(-114.956,91.023289)"><g
     id="g40"
     transform="matrix(3.84,0,0,3.84,-326.47504,-286.77386)"><rect
       style="opacity:1;fill:#ffffff;fill-opacity:1;stroke:none;stroke-width:3.6876719;stroke-linecap:round;stroke-linejoin:miter;stroke-miterlimit:4;stroke-dasharray:none;stroke-dashoffset:0;stroke-opacity:1"
       id="rect43"
       width="50"
       height="50"
       x="114.956"
       y="50.976711" /><g
       id="g41"
       transform="matrix(0.28446108,0,0,0.28446108,140.34952,69.890519)"><path
         inkscape:connector-curvature="0"
         clip-path="url(#clipPath5038-9-7-3)"
         id="path4626-8-2-8-9"
         transform="matrix(4.0721238,0.45842551,-0.51602116,4.5837372,-1577.1042,-2857.1308)"
         d="m 462.76367,566.91602 v 9.50781 l 1.66406,3.375 4.09766,8.30664 h -8.19727 -3.77734 l -7.63867,4.75586 h 11.41601 15.23438 l -1.75977,-3.56836 -5.85742,-11.87305 z m -4.875,0.006 -5.18164,10.49804 -5.22265,10.58789 6.76953,-4.21484 1.9707,-3.99414 1.66406,-3.3711 z"
         style="color:#000000;font-style:normal;font-variant:normal;font-weight:normal;font-stretch:normal;font-size:medium;line-height:normal;font-family:sans-serif;font-variant-ligatures:normal;font-variant-position:normal;font-variant-caps:normal;font-variant-numeric:normal;font-variant-alternates:normal;font-feature-settings:normal;text-indent:0;text-align:start;text-decoration:none;text-decoration-line:none;text-decoration-style:solid;text-decoration-color:#000000;letter-spacing:normal;word-spacing:normal;text-transform:none;writing-mode:lr-tb;direction:ltr;text-orientation:mixed;dominant-baseline:auto;baseline-shift:baseline;text-anchor:start;white-space:normal;shape-padding:0;clip-rule:nonzero;display:inline;overflow:visible;visibility:visible;opacity:1;isolation:auto;mix-blend-mode:normal;color-interpolation:sRGB;color-interpolation-filters:linearRGB;solid-color:#000000;solid-opacity:1;vector-effect:none;fill:#000000;fill-opacity:1;fill-rule:nonzero;stroke:none;stroke-width:4.39432955;stroke-linecap:round;stroke-linejoin:miter;stroke-miterlimit:4;stroke-dasharray:none;stroke-dashoffset:0;stroke-opacity:1;color-rendering:auto;image-rendering:auto;shape-rendering:auto;text-rendering:auto;enable-background:accumulate" /><path
         inkscape:connector-curvature="0"
         style="color:#000000;font-style:normal;font-variant:normal;font-weight:normal;font-stretch:normal;font-size:medium;line-height:normal;font-family:sans-serif;font-variant-ligatures:normal;font-variant-position:normal;font-variant-caps:normal;font-variant-numeric:normal;font-variant-alternates:normal;font-feature-settings:normal;text-indent:0;text-align:start;text-decoration:none;text-decoration-line:none;text-decoration-style:solid;text-decoration-color:#000000;letter-spacing:normal;word-spacing:normal;text-transform:none;writing-mode:lr-tb;direction:ltr;text-orientation:mixed;dominant-baseline:auto;baseline-shift:baseline;text-anchor:start;white-space:normal;shape-padding:0;clip-rule:nonzero;display:inline;overflow:visible;visibility:visible;opacity:1;isolation:auto;mix-blend-mode:normal;color-interpolation:sRGB;color-interpolation-filters:linearRGB;solid-color:#000000;solid-opacity:1;vector-effect:none;fill:#000000;fill-opacity:1;fill-rule:nonzero;stroke:none;stroke-width:4.39432955;stroke-linecap:round;stroke-linejoin:miter;stroke-miterlimit:4;stroke-dasharray:none;stroke-dashoffset:0;stroke-opacity:1;color-rendering:auto;image-rendering:auto;shape-rendering:auto;text-rendering:auto;enable-background:accumulate"
         d="m 462.76367,566.91602 v 9.50781 l 1.66406,3.375 4.09766,8.30664 h -8.19727 -3.77734 l -7.63867,4.75586 h 11.41601 15.23438 l -1.75977,-3.56836 -5.85742,-11.87305 z m -4.875,0.006 -5.18164,10.49804 -5.22265,10.58789 6.76953,-4.21484 1.9707,-3.99414 1.66406,-3.3711 z"
         transform="matrix(-4.0721238,-0.45842551,-0.51602116,4.5837372,2172.0786,-2435.0608)"
         id="path5042-1-2-4"
         clip-path="url(#clipPath5038-9-7-3)" /></g><g
       id="XMLID_13254_"
       transform="matrix(0.53887893,0,0,0.53887893,135.52461,70.563082)">
	<ellipse
   id="XMLID_13261_"
   class="st0"
   cx="24"
   cy="44.599998"
   rx="18"
   ry="2.4000001"
   style="opacity:0.15;fill:#45413c" />
	<path
   class="st30"
   d="M 28.8,9.5 H 19.1 C 10.1,9.5 2.8,16.2 2.8,25.2 2.8,35.2 11,44 21,44 h 6 c 10,0 18.2,-8.8 18.2,-18.8 0,-9 -7.3,-15.7 -16.4,-15.7 z"
   id="path5"
   inkscape:connector-curvature="0"
   style="fill:#ff6242" />
	<path
   id="XMLID_13260_"
   class="st51"
   d="M 27,38.6 H 21 C 11.9,38.6 4.4,31.4 3.1,22.5 3,23.3 2.9,24.2 2.9,25.1 2.8,35.2 11,44 21,44 h 6 c 10,0 18.2,-8.8 18.2,-18.8 0,-0.9 -0.1,-1.8 -0.2,-2.6 -1.4,8.8 -8.9,16 -18,16 z"
   inkscape:connector-curvature="0"
   style="fill:#e04122" />
	<path
   class="st3"
   d="M 28.8,9.5 H 19.1 C 10.1,9.5 2.8,16.2 2.8,25.2 2.8,35.2 11,44 21,44 h 6 c 10,0 18.2,-8.8 18.2,-18.8 0,-9 -7.3,-15.7 -16.4,-15.7 z"
   id="path8"
   inkscape:connector-curvature="0"
   style="fill:none;stroke:#45413c;stroke-linecap:round;stroke-linejoin:round;stroke-miterlimit:10" />
	<path
   id="XMLID_13259_"
   class="st58"
   d="m 24.2,15.9 c 3.4,0.8 6.8,2.7 8.6,3.8 0.6,0.4 1.3,-0.1 1.2,-0.8 -0.3,-1.6 -1,-4 -2.9,-5.6 -0.4,-0.3 -0.4,-1 0.1,-1.2 C 32.4,11.4 34,11 35.3,10.7 36,10.6 36.2,9.6 35.5,9.2 34,8.4 31.8,7.6 29.5,8 c -2.7,0.4 -4.2,1.6 -4.9,2.4 -0.3,0.3 -0.8,0.3 -1.2,0 -0.7,-0.8 -2.2,-2 -4.9,-2.4 -2.4,-0.3 -4.6,0.5 -6,1.2 -0.7,0.3 -0.5,1.3 0.2,1.5 1.3,0.3 3,0.7 4.1,1.4 0.5,0.3 0.5,0.9 0.1,1.2 -1.9,1.6 -2.7,4 -2.9,5.6 -0.1,0.7 0.6,1.2 1.2,0.8 1.8,-1.1 5.2,-3 8.6,-3.8 0.1,0 0.3,0 0.4,0 z"
   inkscape:connector-curvature="0"
   style="fill:#6dd627" />
	<g
   id="XMLID_13257_">
		<path
   id="XMLID_13258_"
   class="st67"
   d="m 12.7,10.7 c 0.4,0.1 0.8,0.2 1.2,0.3 1.3,-0.5 2.9,-0.8 4.6,-0.6 2.7,0.4 4.2,1.6 4.9,2.4 0.3,0.3 0.8,0.3 1.2,0 0.7,-0.8 2.2,-2 4.9,-2.4 1.7,-0.2 3.3,0.1 4.6,0.6 0.4,-0.1 0.8,-0.2 1.2,-0.3 C 36,10.6 36.2,9.6 35.5,9.2 34,8.4 31.8,7.6 29.5,8 c -2.7,0.4 -4.2,1.6 -4.9,2.4 -0.3,0.3 -0.8,0.3 -1.2,0 -0.7,-0.8 -2.2,-2 -4.9,-2.4 -2.4,-0.3 -4.6,0.5 -6,1.2 -0.7,0.4 -0.5,1.4 0.2,1.5 z"
   inkscape:connector-curvature="0"
   style="fill:#9ceb60" />
	</g>
	<path
   id="XMLID_13256_"
   class="st3"
   d="m 24.2,15.9 c 3.4,0.8 6.8,2.7 8.6,3.8 0.6,0.4 1.3,-0.1 1.2,-0.8 -0.3,-1.6 -1,-4 -2.9,-5.6 -0.4,-0.3 -0.4,-1 0.1,-1.2 C 32.4,11.4 34,11 35.3,10.7 36,10.6 36.2,9.6 35.5,9.2 34,8.4 31.8,7.6 29.5,8 c -2.7,0.4 -4.2,1.6 -4.9,2.4 -0.3,0.3 -0.8,0.3 -1.2,0 -0.7,-0.8 -2.2,-2 -4.9,-2.4 -2.4,-0.3 -4.6,0.5 -6,1.2 -0.7,0.3 -0.5,1.3 0.2,1.5 1.3,0.3 3,0.7 4.1,1.4 0.5,0.3 0.5,0.9 0.1,1.2 -1.9,1.6 -2.7,4 -2.9,5.6 -0.1,0.7 0.6,1.2 1.2,0.8 1.8,-1.1 5.2,-3 8.6,-3.8 0.1,0 0.3,0 0.4,0 z"
   inkscape:connector-curvature="0"
   style="fill:none;stroke:#45413c;stroke-linecap:round;stroke-linejoin:round;stroke-miterlimit:10" />
	<path
   id="XMLID_13255_"
   class="st42"
   d="m 22.4,13.1 c 0,0 -0.3,-3.9 2.4,-6.7 0.3,-0.3 0.6,-0.4 1,-0.4 0.4,0 0.7,0.1 1,0.2 0.7,0.3 0.8,1.1 0.4,1.7 -1.3,1.8 -2.1,5.3 -2.1,5.3"
   inkscape:connector-curvature="0"
   style="fill:#6dd627;stroke:#45413c;stroke-linecap:round;stroke-linejoin:round;stroke-miterlimit:10" />
</g></g></g></svg>